<svg width="36" height="36" viewBox="0 0 36 36" fill="none" xmlns="http://www.w3.org/2000/svg">
<g id="radix-icons:notion-logo">
<path id="Vector" d="M7.81916 7.48086C8.82716 8.29926 9.20396 8.23686 11.0976 8.10966L28.9368 7.03926C29.316 7.03926 29.0016 6.66246 28.8744 6.60006L25.9104 4.45686C25.344 4.01526 24.588 3.51126 23.1384 3.63846L5.86316 4.89846C5.23436 4.96086 5.10716 5.27526 5.35916 5.52726L7.81916 7.48086ZM8.88956 11.6377V30.4081C8.88956 31.4161 9.39356 31.7953 10.5288 31.7329L30.1368 30.5977C31.2696 30.5353 31.3968 29.8417 31.3968 29.0233V10.3777C31.3968 9.56166 31.0824 9.11766 30.3888 9.18006L9.89756 10.3777C9.14156 10.4401 8.88956 10.8193 8.88956 11.6377ZM28.2456 12.6457C28.3704 13.2121 28.2456 13.7785 27.6768 13.8433L26.7312 14.0305V27.8881C25.9128 28.3297 25.1544 28.5841 24.5232 28.5841C23.5152 28.5841 23.2632 28.2673 22.5072 27.3217L16.3272 17.6209V27.0073L18.2832 27.4489C18.2832 27.4489 18.2832 28.5817 16.7064 28.5817L12.3576 28.8337C12.2304 28.5817 12.3576 27.9529 12.7992 27.8257L13.932 27.5137V15.1009L12.36 14.9761C12.2328 14.4097 12.5472 13.5913 13.4304 13.5265L18.096 13.2145L24.528 23.0401V14.3473L22.8888 14.1577C22.7616 13.4641 23.2656 12.9601 23.8968 12.8977L28.248 12.6457H28.2456ZM4.41356 3.19686L22.3824 1.87446C24.588 1.68246 25.1544 1.81206 26.5416 2.82006L32.2776 6.85206C33.2256 7.54326 33.54 7.73286 33.54 8.48886V30.5977C33.54 31.9849 33.036 32.8057 31.2696 32.9281L10.404 34.1881C9.07916 34.2529 8.44796 34.0633 7.75436 33.1801L3.53036 27.7009C2.77436 26.6929 2.45996 25.9369 2.45996 25.0537V5.40006C2.45996 4.26726 2.96396 3.32166 4.41356 3.19686Z" fill="#FFFBFB"/>
</g>
</svg>
